<svg width="24" height="25" viewBox="0 0 24 25" fill="none" xmlns="http://www.w3.org/2000/svg">
<path d="M16.8198 2.75305H7.17982C5.04982 2.75305 3.31982 4.49305 3.31982 6.61305V20.7031C3.31982 22.5031 4.60982 23.2631 6.18982 22.3931L11.0698 19.6831C11.5898 19.3931 12.4298 19.3931 12.9398 19.6831L17.8198 22.3931C19.3998 23.2731 20.6898 22.5131 20.6898 20.7031V6.61305C20.6798 4.49305 18.9498 2.75305 16.8198 2.75305Z" stroke="#7756FC" stroke-width="1.5" stroke-linecap="round" stroke-linejoin="round"/>
<path d="M16.8198 2.75305H7.17982C5.04982 2.75305 3.31982 4.49305 3.31982 6.61305V20.7031C3.31982 22.5031 4.60982 23.2631 6.18982 22.3931L11.0698 19.6831C11.5898 19.3931 12.4298 19.3931 12.9398 19.6831L17.8198 22.3931C19.3998 23.2731 20.6898 22.5131 20.6898 20.7031V6.61305C20.6798 4.49305 18.9498 2.75305 16.8198 2.75305Z" fill="#7756FC" stroke="#7756FC" stroke-width="1.5" stroke-linecap="round" stroke-linejoin="round"/>
</svg>
