<svg width="22" height="21" viewBox="0 0 22 21" fill="none" xmlns="http://www.w3.org/2000/svg">
<g clip-path="url(#clip0_24_679)">
<path d="M11.0912 0.331299C6.52933 0.331299 2.80859 3.85771 2.80859 8.18132C2.80859 9.8962 3.38197 11.5266 4.46516 12.8913L10.5815 20.7011C10.6705 20.8218 10.9127 20.9426 11.0912 20.9426C11.2824 20.9426 11.5118 20.8097 11.6009 20.701C11.6263 20.6647 17.7809 12.8067 17.832 12.7342C17.8447 12.7342 17.8447 12.7342 17.8447 12.7222C18.8386 11.3937 19.3737 9.82372 19.3737 8.18132C19.3738 3.85775 15.653 0.331299 11.0912 0.331299ZM11.0912 12.4082C8.63199 12.4082 6.63134 10.5122 6.63134 8.18132C6.63134 5.85048 8.63199 3.95439 11.0912 3.95439C13.5504 3.95439 15.551 5.85048 15.551 8.18132C15.551 10.5122 13.5504 12.4082 11.0912 12.4082Z" fill="#FF833D"/>
<path d="M11.0908 0.326294V3.94939C13.55 3.94939 15.5507 5.84547 15.5507 8.17631C15.5507 10.5071 13.55 12.4032 11.0908 12.4032V20.9376C11.282 20.9376 11.5114 20.8047 11.6006 20.696C11.6259 20.6597 17.7806 12.8017 17.8316 12.7292C17.8443 12.7292 17.8443 12.7292 17.8443 12.7172C18.8383 11.3887 19.3734 9.81872 19.3734 8.17631C19.3734 3.85271 15.6527 0.326294 11.0908 0.326294Z" fill="#E86D28"/>
</g>
<defs>
<clipPath id="clip0_24_679">
<rect width="21.7522" height="20.6162" fill="white" transform="translate(0.214844 0.326294)"/>
</clipPath>
</defs>
</svg>
