<svg width="25" height="25" viewBox="0 0 25 25" fill="none" xmlns="http://www.w3.org/2000/svg">
<path d="M21.12 9.22319C20.07 4.60319 16.04 2.52319 12.5 2.52319C12.5 2.52319 12.5 2.52319 12.49 2.52319C8.95997 2.52319 4.91997 4.59319 3.86997 9.21319C2.69997 14.3732 5.85997 18.7432 8.71997 21.4932C9.77997 22.5132 11.14 23.0232 12.5 23.0232C13.86 23.0232 15.22 22.5132 16.27 21.4932C19.13 18.7432 22.29 14.3832 21.12 9.22319ZM12.5 14.2332C10.76 14.2332 9.34997 12.8232 9.34997 11.0832C9.34997 9.34319 10.76 7.93319 12.5 7.93319C14.24 7.93319 15.65 9.34319 15.65 11.0832C15.65 12.8232 14.24 14.2332 12.5 14.2332Z" fill="#292D32"/>
</svg>
