<svg width="21" height="21" viewBox="0 0 21 21" fill="none" xmlns="http://www.w3.org/2000/svg">
<path d="M10.0908 2.32788C5.49914 2.32788 1.75747 6.06955 1.75747 10.6612C1.75747 15.2529 5.49914 18.9945 10.0908 18.9945C14.6825 18.9945 18.4241 15.2529 18.4241 10.6612C18.4241 6.06955 14.6825 2.32788 10.0908 2.32788ZM13.7158 13.6362C13.5991 13.8362 13.3908 13.9445 13.1741 13.9445C13.0658 13.9445 12.9575 13.9195 12.8575 13.8529L10.2741 12.3112C9.63247 11.9279 9.15747 11.0862 9.15747 10.3445V6.92788C9.15747 6.58621 9.4408 6.30288 9.78247 6.30288C10.1241 6.30288 10.4075 6.58621 10.4075 6.92788V10.3445C10.4075 10.6445 10.6575 11.0862 10.9158 11.2362L13.4991 12.7779C13.7991 12.9529 13.8991 13.3362 13.7158 13.6362Z" fill="#E79B3F"/>
</svg>
