<svg width="32" height="30" viewBox="0 0 32 30" fill="none" xmlns="http://www.w3.org/2000/svg">
<path d="M15.4668 0.66032L15.1663 0.813892L13.063 5.04712C11.9079 7.37072 10.9264 9.31374 10.8863 9.3538C10.853 9.39386 8.76305 9.72104 6.24581 10.0816C1.14457 10.8161 1.1913 10.8094 0.930901 11.3302C0.743945 11.6908 0.737267 11.9445 0.904193 12.2984C0.990994 12.4853 2.03929 13.5403 4.36957 15.8038C6.4795 17.8536 7.70808 19.0889 7.71475 19.1757C7.72143 19.2491 7.37423 21.319 6.95357 23.7762C6.53292 26.2333 6.18572 28.3499 6.18572 28.4701C6.18572 28.7906 6.41273 29.1845 6.68649 29.3582C6.8868 29.485 6.99364 29.4984 7.34084 29.4783C7.73478 29.445 7.98851 29.3248 11.8812 27.2682L16.0009 25.0982L20.1273 27.2616C22.3908 28.4568 24.3606 29.4583 24.5008 29.485C25.1685 29.6386 25.8162 29.1445 25.8162 28.4835C25.8162 28.3499 25.4689 26.2266 25.0483 23.7695C24.6276 21.3057 24.2804 19.2425 24.2804 19.189C24.2804 19.129 25.7961 17.5999 27.6523 15.7971C31.091 12.4386 31.2245 12.2917 31.2245 11.8109C31.2245 11.7108 31.1578 11.4904 31.0776 11.3302C30.8106 10.8027 30.864 10.8161 25.716 10.0749C23.1854 9.70768 21.1022 9.38718 21.0888 9.3538C21.0755 9.32041 20.114 7.38408 18.9522 5.0538L16.8356 0.813892L16.5351 0.66032C16.3748 0.580196 16.1345 0.513426 16.0009 0.513426C15.8674 0.513426 15.627 0.580196 15.4668 0.66032Z" fill="#84888F"/>
</svg>
