<svg width="16" height="20" viewBox="0 0 16 20" fill="none" xmlns="http://www.w3.org/2000/svg">
<path d="M0.571429 18.3503C0.419876 18.3503 0.274531 18.4129 0.167368 18.5242C0.0602039 18.6356 0 18.7866 0 18.9441C0 19.1016 0.0602039 19.2526 0.167368 19.3639C0.274531 19.4753 0.419876 19.5378 0.571429 19.5378H15.4286C15.5801 19.5378 15.7255 19.4753 15.8326 19.3639C15.9398 19.2526 16 19.1016 16 18.9441C16 18.7866 15.9398 18.6356 15.8326 18.5242C15.7255 18.4129 15.5801 18.3503 15.4286 18.3503H13.7143V3.50652C13.7143 3.0341 13.5337 2.58103 13.2122 2.24698C12.8907 1.91293 12.4547 1.72526 12 1.72526H11.4286V1.1315C11.4286 1.04652 11.411 0.96252 11.377 0.885195C11.3431 0.80787 11.2936 0.739018 11.2318 0.683292C11.1701 0.627566 11.0975 0.586265 11.0191 0.562181C10.9406 0.538097 10.8581 0.531791 10.7771 0.543689L2.77714 1.73119C2.64082 1.75122 2.51604 1.82172 2.42575 1.92972C2.33546 2.03771 2.28574 2.17595 2.28571 2.31901V18.3503H0.571429ZM11.4286 2.91276H12C12.1516 2.91276 12.2969 2.97532 12.4041 3.08667C12.5112 3.19802 12.5714 3.34904 12.5714 3.50652V18.3503H11.4286V2.91276ZM8.57143 12.4128C8.256 12.4128 8 11.8808 8 11.2253C8 10.5698 8.256 10.0378 8.57143 10.0378C8.88686 10.0378 9.14286 10.5698 9.14286 11.2253C9.14286 11.8808 8.88686 12.4128 8.57143 12.4128Z" fill="#7756FC"/>
</svg>
