<svg width="24" height="25" viewBox="0 0 24 25" fill="none" xmlns="http://www.w3.org/2000/svg">
<path d="M16.82 2.75305H7.18001C5.05001 2.75305 3.32001 4.49305 3.32001 6.61305V20.7031C3.32001 22.5031 4.61001 23.2631 6.19001 22.3931L11.07 19.6831C11.59 19.3931 12.43 19.3931 12.94 19.6831L17.82 22.3931C19.4 23.2731 20.69 22.5131 20.69 20.7031V6.61305C20.68 4.49305 18.95 2.75305 16.82 2.75305Z" stroke="#7756FC" stroke-width="1.5" stroke-linecap="round" stroke-linejoin="round"/>
<path d="M16.82 2.75305H7.18001C5.05001 2.75305 3.32001 4.49305 3.32001 6.61305V20.7031C3.32001 22.5031 4.61001 23.2631 6.19001 22.3931L11.07 19.6831C11.59 19.3931 12.43 19.3931 12.94 19.6831L17.82 22.3931C19.4 23.2731 20.69 22.5131 20.69 20.7031V6.61305C20.68 4.49305 18.95 2.75305 16.82 2.75305Z" stroke="#7756FC" stroke-width="1.5" stroke-linecap="round" stroke-linejoin="round"/>
</svg>
