<svg width="21" height="21" viewBox="0 0 21 21" fill="none" xmlns="http://www.w3.org/2000/svg">
<path d="M17.2741 7.11287C16.3991 3.26287 13.0408 1.52954 10.0908 1.52954C10.0908 1.52954 10.0908 1.52954 10.0825 1.52954C7.14081 1.52954 3.77414 3.25454 2.89914 7.10454C1.92414 11.4045 4.55748 15.0462 6.94081 17.3379C7.82414 18.1879 8.95747 18.6129 10.0908 18.6129C11.2241 18.6129 12.3575 18.1879 13.2325 17.3379C15.6158 15.0462 18.2491 11.4129 17.2741 7.11287ZM10.0908 11.2879C8.64081 11.2879 7.46581 10.1129 7.46581 8.66287C7.46581 7.21287 8.64081 6.03787 10.0908 6.03787C11.5408 6.03787 12.7158 7.21287 12.7158 8.66287C12.7158 10.1129 11.5408 11.2879 10.0908 11.2879Z" fill="#E79B3F"/>
</svg>
