<svg width="20" height="21" viewBox="0 0 20 21" fill="none" xmlns="http://www.w3.org/2000/svg">
<path d="M10 0.727051C4.49 0.727051 0 5.21705 0 10.7271C0 16.2371 4.49 20.7271 10 20.7271C15.51 20.7271 20 16.2371 20 10.7271C20 5.21705 15.51 0.727051 10 0.727051ZM14 11.4771H10.75V14.7271C10.75 15.1371 10.41 15.4771 10 15.4771C9.59 15.4771 9.25 15.1371 9.25 14.7271V11.4771H6C5.59 11.4771 5.25 11.1371 5.25 10.7271C5.25 10.3171 5.59 9.97705 6 9.97705H9.25V6.72705C9.25 6.31705 9.59 5.97705 10 5.97705C10.41 5.97705 10.75 6.31705 10.75 6.72705V9.97705H14C14.41 9.97705 14.75 10.3171 14.75 10.7271C14.75 11.1371 14.41 11.4771 14 11.4771Z" fill="#7756FC"/>
</svg>
