<svg width="20" height="21" viewBox="0 0 20 21" fill="none" xmlns="http://www.w3.org/2000/svg">
<path d="M17.7363 7.11353L12.7774 6.39283L10.5606 1.89869C10.5 1.77564 10.4004 1.67603 10.2773 1.61549C9.96876 1.46314 9.59376 1.5901 9.43946 1.89869L7.22266 6.39283L2.26368 7.11353C2.12696 7.13306 2.00196 7.19752 1.90626 7.29517C1.79056 7.41409 1.7268 7.57408 1.729 7.73998C1.7312 7.90588 1.79917 8.06413 1.91797 8.17994L5.50587 11.678L4.65821 16.6174C4.63833 16.7323 4.65105 16.8505 4.69491 16.9586C4.73878 17.0666 4.81204 17.1602 4.90639 17.2287C5.00074 17.2972 5.1124 17.338 5.22872 17.3463C5.34503 17.3546 5.46134 17.3301 5.56446 17.2756L10 14.9436L14.4356 17.2756C14.5566 17.3401 14.6973 17.3616 14.832 17.3381C15.1719 17.2795 15.4004 16.9573 15.3418 16.6174L14.4941 11.678L18.082 8.17994C18.1797 8.08424 18.2441 7.95924 18.2637 7.82252C18.3164 7.48072 18.0781 7.16431 17.7363 7.11353V7.11353Z" fill="#D6D6D6"/>
</svg>
