<svg width="12" height="11" viewBox="0 0 12 11" fill="none" xmlns="http://www.w3.org/2000/svg">
<path d="M10.9293 4.23869L7.76958 3.77948L6.35712 0.915977C6.31854 0.837576 6.25507 0.774108 6.17667 0.73553C5.98005 0.638462 5.74111 0.719352 5.6428 0.915977L4.23034 3.77948L1.07065 4.23869C0.983536 4.25113 0.903891 4.2922 0.842912 4.35442C0.769193 4.43019 0.72857 4.53213 0.72997 4.63784C0.73137 4.74355 0.774678 4.84437 0.850379 4.91816L3.13645 7.14699L2.59636 10.2942C2.58369 10.3674 2.59179 10.4427 2.61974 10.5116C2.64769 10.5804 2.69437 10.6401 2.75449 10.6837C2.81461 10.7274 2.88575 10.7533 2.95986 10.7586C3.03398 10.7639 3.10808 10.7483 3.17379 10.7136L5.99996 9.22773L8.82613 10.7136C8.90329 10.7547 8.99289 10.7684 9.07876 10.7534C9.29529 10.7161 9.4409 10.5108 9.40356 10.2942L8.86347 7.14699L11.1495 4.91816C11.2118 4.85719 11.2528 4.77754 11.2653 4.69043C11.2989 4.47265 11.1471 4.27104 10.9293 4.23869Z" fill="#FFD33C"/>


</svg>


